/* XPM */
static const char* crs4Pixmap[] = {
/* columns rows colors chars-per-pixel */
"29 29 256 2",
"   c #007c00",
".  c #000086",
"X  c #01018b",
"o  c #08088d",
"O  c #050591",
"+  c #0d0394",
"@  c #0c0c92",
"#  c #141495",
"$  c #151599",
"%  c #1c1c9a",
"&  c #241aa7",
"*  c #22229d",
"=  c #2a2a9a",
"-  c #31319e",
";  c #39399f",
":  c #2626a1",
">  c #2c2ca1",
",  c #3434a4",
"<  c #3a3aa6",
"1  c #3e3ea9",
"2  c #453cb2",
"3  c #4242a6",
"4  c #4343ab",
"5  c #4b4bac",
"6  c #4b42b3",
"7  c #4e4eb0",
"8  c #5050aa",
"9  c #5555b4",
"0  c #5b5bb7",
"q  c #6464b5",
"w  c #6262b8",
"e  c #6c6cb6",
"r  c #6c6cbd",
"t  c #7171bf",
"y  c #7a7abb",
"u  c #7474c1",
"i  c #7b7bc3",
"p  c #018301",
"a  c #028902",
"s  c #ffffff",
"d  c #139214",
"f  c #1a991a",
"g  c #16a30d",
"h  c #239c23",
"j  c #22a122",
"k  c #2ba12b",
"l  c #33ab33",
"z  c #3daa3d",
"x  c #49b24a",
"c  c #55b655",
"v  c #5ab75a",
"b  c #5db85d",
"n  c #5ca769",
"m  c #63c163",
"M  c #6cc66c",
"N  c #7bcb7b",
"B  c #798cb5",
"V  c #73a988",
"C  c #8282c5",
"Z  c #8989c3",
"A  c #8c8cca",
"S  c #9292c4",
"D  c #9494cd",
"F  c #9e9ec7",
"G  c #9c9dcc",
"H  c #9d9ed3",
"J  c #a5a5cb",
"K  c #ababcf",
"L  c #a3a3d7",
"P  c #adaddb",
"I  c #afb1d0",
"U  c #b0b1c8",
"Y  c #b6b6db",
"T  c #bcbcd6",
"R  c #b8b8df",
"E  c #b8b8e0",
"W  c #85cc85",
"Q  c #88c491",
"!  c #8cd18c",
"~  c #99ce97",
"^  c #94d395",
"/  c #9fd29a",
"(  c #b5d9b3",
")  c #b9deb9",
"_  c #bae3ba",
"`  c #c0bfd6",
"'  c #c2e7bf",
"]  c #c2c2db",
"[  c #cbcbdc",
"{  c #c3dcc3",
"}  c #d0d0d5",
"|  c #d7d7df",
" . c #d0ded2",
".. c #dddede",
"X. c #c5c5e5",
"o. c #cdcde9",
"O. c #d3d3e1",
"+. c #d3d3eb",
"@. c #dcdce4",
"#. c #dadaef",
"$. c #c4e1c4",
"%. c #c6eac6",
"&. c #d6e4d7",
"*. c #d0efd2",
"=. c #dae4da",
"-. c #dfe8df",
";. c #d5f1d5",
":. c #e2dee2",
">. c #e2d8ee",
",. c #e1e1de",
"<. c #e6eddf",
"1. c gray89",
"2. c #e6e6e9",
"3. c #e6eae6",
"4. c #e9e7e9",
"5. c #e9e9e5",
"6. c #ececea",
"7. c #e4e4f3",
"8. c #edecf3",
"9. c #efeff8",
"0. c #edf0ed",
"q. c #ebfaeb",
"w. c #f4edf4",
"e. c #f4f4e7",
"r. c #f4f4ec",
"t. c #f9f9ef",
"y. c #f5f4f4",
"u. c #f5f5fa",
"i. c #f4fcf4",
"p. c #f9f6f6",
"a. c #fbfbf3",
"s. c None",
"d. c gray0",
"f. c gray0",
"g. c gray0",
"h. c gray0",
"j. c gray0",
"k. c gray0",
"l. c gray0",
"z. c gray0",
"x. c gray0",
"c. c gray0",
"v. c gray0",
"b. c gray0",
"n. c gray0",
"m. c gray0",
"M. c gray0",
"N. c gray0",
"B. c gray0",
"V. c gray0",
"C. c gray0",
"Z. c gray0",
"A. c gray0",
"S. c gray0",
"D. c gray0",
"F. c gray0",
"G. c gray0",
"H. c gray0",
"J. c gray0",
"K. c gray0",
"L. c gray0",
"P. c gray0",
"I. c gray0",
"U. c gray0",
"Y. c gray0",
"T. c gray0",
"R. c gray0",
"E. c gray0",
"W. c gray0",
"Q. c gray0",
"!. c gray0",
"~. c gray0",
"^. c gray0",
"/. c gray0",
"(. c gray0",
"). c gray0",
"_. c gray0",
"`. c gray0",
"'. c gray0",
"]. c gray0",
"[. c gray0",
"{. c gray0",
"}. c gray0",
"|. c gray0",
" X c gray0",
".X c gray0",
"XX c gray0",
"oX c gray0",
"OX c gray0",
"+X c gray0",
"@X c gray0",
"#X c gray0",
"$X c gray0",
"%X c gray0",
"&X c gray0",
"*X c gray0",
"=X c gray0",
"-X c gray0",
";X c gray0",
":X c gray0",
">X c gray0",
",X c gray0",
"<X c gray0",
"1X c gray0",
"2X c gray0",
"3X c gray0",
"4X c gray0",
"5X c gray0",
"6X c gray0",
"7X c gray0",
"8X c gray0",
"9X c gray0",
"0X c gray0",
"qX c gray0",
"wX c gray0",
"eX c gray0",
"rX c gray0",
"tX c gray0",
"yX c gray0",
"uX c gray0",
"iX c gray0",
"pX c gray0",
"aX c gray0",
"sX c gray0",
"dX c gray0",
"fX c gray0",
"gX c gray0",
"hX c gray0",
"jX c gray0",
"kX c gray0",
"lX c gray0",
"zX c gray0",
"xX c gray0",
"cX c gray0",
"vX c gray0",
"bX c gray0",
"nX c gray0",
"mX c gray0",
"MX c gray0",
"NX c gray0",
"BX c gray0",
"VX c gray0",
"CX c gray0",
"ZX c gray0",
"AX c gray0",
"SX c gray0",
"DX c gray0",
"FX c gray0",
"GX c gray0",
"HX c gray0",
"JX c gray0",
"KX c gray0",
"LX c gray0",
"PX c gray0",
"IX c gray0",
"UX c gray0",
/* pixels */
"s.s.s.s.s.s.1...8.u.s.s.s.s.s.s.s.s.s.s.s.s.s.s.s.s.s.s.s.",
"s.s.s.s.s.s.1.6.6.t.a.a.s.s.s.s.s.s.s.s.s.s.s.s.s.s.s.s.s.",
"s.s.s.s.s.y.5.T 3 8 A ] 1.t.a.a.s.s.s.s.s.s.s.s.s.s.s.s.s.",
"s.s.s.s.s.r.O.# . . . O : 0 D [ 6.6.a.a.s.s.s.s.s.s.s.s.s.",
"s.s.s.s.s.t.D . O X . . . . X O y 5.Y @.r.a.y.u.s.s.s.s.s.",
"s.s.s.s.u.r.9 . O C D 1 @ X O X # J o $ 7 Z ] 2.t.a.y.y.s.",
"s.s.s.s.y.@.* . % u.s.s.8.P # . $ w X X . . O : 0 D O.r.1.",
"s.s.s.s.t.Y X . 7 s.u.s.s.s.X.r w 4 . O X . . . . . O F r.",
"s.s.s.s.t.i . . A s.u.s.s.s.s.s.O.$ . : #.L 9 % X o . < 6.",
"s.s.s.p.6.4 . X X.s.s.s.s.s.s.s.J X X @ w P 7.s.H X . 1 6.",
"s.s.s.y.2.= X O > u E 9.s.o.u.a.e . O X . . X < 5 O . i t.",
"s.s.s.2.r.e . . . . X $ , o $ C 1 . @ $ X O X . . O . T y.",
"s.s.s.1.r.,.Z 5 % X . . . O . e % . > u.P @ X O X . 5 5.y.",
"s.s.u.5.S % , w C A r < @ . , Z O . r s.s.i . . 9 X.1.1.s.",
"s.s.a.] O . . . X $ 4 r Z J 5.t . . P s.s.9.* . * 8.1.2.s.",
"s.s.t.C . O O . . . . . . q 5.| I y >.y.y.s.H . . q 6.8.s.",
"s.s.r.5 . . D #.C 1 @ X O X U a.s.s.~ { :...w.2 . = 1.s.s.",
"s.y.5.= X X : A o.u.9.< . o ` s.*.x   b s.w.( Q B G 6.s.s.",
"s.6.e.A . X X . . $ 7 i L i  .M a     h q.s.v   g $.w.s.s.",
"s.6.K E A 1 @ . . . . . 9 3.h     s N i.s.i.h   d &.y.s.s.",
"y.6.1 . : X.u.E u : O X + V a   z i.s.s.s.%.p   x w.y.s.s.",
"2.5.- X X @ 1 A +.7.% . & n p p j ! _ q.s.W     W w.s.s.s.",
"} 0.S . . X . . X $ o . 6 /         p d x h   a ) w.s.s.s.",
"..5.1.K w > O X X . X . y a.^ h a p       p   h 3.y.s.s.s.",
"s.s.p.a.a.1.] Z 5 % X 5 } s.s.s.;.^ c f a p   c w.s.s.s.s.",
"s.s.s.s.s.s.s.a.e.@.[ 5.1.6.y.s.s.s.s.s.m     ^ w.s.s.s.s.",
"s.s.s.s.s.s.s.s.s.s.a.6.1.....1.3.0.p.s.z   s $.w.s.s.s.s.",
"s.s.s.s.s.s.s.s.s.s.s.s.s.s.y.6.1...:.=.l p k 3.p.s.s.s.s.",
"s.s.s.s.s.s.s.s.s.s.s.s.s.s.s.s.s.s.0.6.3.) ) 4.s.s.s.s.s."
};
