#define edit_width 22
#define edit_height 22
static unsigned char edit_bits[] = {
  0x0f, 0x00, 0x00, 0x11, 0x00, 0x00, 0x11, 0x00, 0x00, 0x11, 0x00, 0x00, 
  0x21, 0xe0, 0x03, 0x23, 0x3c, 0x06, 0xa2, 0x27, 0x04, 0xe2, 0x64, 0x04, 
  0x46, 0x44, 0x0c, 0xc4, 0xc4, 0x08, 0x8c, 0x0c, 0x08, 0x88, 0x19, 0x08, 
  0x18, 0x01, 0x08, 0x30, 0x00, 0x0c, 0x20, 0x00, 0x04, 0x60, 0x00, 0x04, 
  0x40, 0x00, 0x0c, 0x7c, 0x00, 0x08, 0x06, 0x00, 0x18, 0x02, 0x00, 0x30, 
  0x06, 0x00, 0x20, 0xfc, 0x0f, 0x00, };
