#define measure_width 22
#define measure_height 22
static unsigned char measure_bits[] = {
  0x00, 0x00, 0x00, 0x1c, 0x00, 0x00, 0x32, 0x00, 0x00, 0x5e, 0x00, 0x00, 
  0x84, 0x00, 0x00, 0x08, 0x01, 0x00, 0x10, 0x02, 0x00, 0x20, 0x04, 0x00, 
  0x40, 0x08, 0x00, 0x80, 0x10, 0x00, 0x00, 0x21, 0x00, 0x00, 0x42, 0x00, 
  0x00, 0x84, 0x00, 0x00, 0x08, 0x01, 0x00, 0x10, 0x02, 0x00, 0x20, 0x04, 
  0x00, 0x40, 0x08, 0x00, 0x80, 0x08, 0x41, 0x10, 0x1d, 0x41, 0x10, 0x1e, 
  0x49, 0x92, 0x38, 0xff, 0xff, 0x3f, };
