/* XPM */
static const char * record_xpm[] = {
"14 14 7 1",
" 	c None",
".	c #FFFFFF",
"+	c #FFA6A6",
"@	c #FF3F3F",
"#	c #FF0808",
"$	c #FF7373",
"%	c #FF0000",
"..............",
"..............",
"....+@##@+....",
"...$%%%%%%$...",
"..+%%%%%%%%+..",
"..@%%%%%%%%@..",
"..#%%%%%%%%#..",
"..#%%%%%%%%#..",
"..@%%%%%%%%@..",
"..+%%%%%%%%+..",
"...$%%%%%%$...",
"....+@##@+....",
"..............",
".............."};
