/* XPM */
static const char *redoPixmap[] = {
"14 14 2 1",
" 	c #FFFFFFFFFFFF",
".	c #000000000000",
"              ",
"    ....      ",
"   ......     ",
"  ..    ..    ",
" ..      ..   ",
" ..      ..   ",
" ..    ...... ",
" ..     ....  ",
" ..      ..   ",
"  ..          ",
"  ......      ",
"    ....      ",
"              ",
"              "};
