/* XPM */
static const char *resetPixmap[] = {
"22 22 3 1",
" 	c None",
".	c #000000000000",
"X	c #FFFFFFFF0000",
"                      ",
"                      ",
"                      ",
"      ..  .           ",
"      .. ...          ",
"      ....X..         ",
"      ...XXX..        ",
"      ..XXXXX..       ",
"     ..XXXXXXX..      ",
"    ..XX...XXXX..     ",
"   ...XX. .XXXX...    ",
"  .. .XX...XXXXX...   ",
"  .  .XXXXXXXXXX. ..  ",
"     .XXXXXXXXXX.  .  ",
"     .XXXXXXXXXX.     ",
"     .XXXX...XXX.     ",
"     .XXXX. .XXX.     ",
"     .XXXX. .XXX.     ",
"     .XXXX. .XXX.     ",
"     ............     ",
"                      ",
"                      "};
