#define transxy_width 22
#define transxy_height 22
static unsigned char transxy_bits[] = {
  0x00, 0x00, 0x00, 0x00, 0x0c, 0x00, 0x00, 0x1e, 0x00, 0x00, 0x3f, 0x00, 
  0x00, 0x0c, 0x00, 0x00, 0x0c, 0x00, 0x00, 0x0c, 0x00, 0x00, 0x0c, 0x00, 
  0x08, 0x0c, 0x04, 0x0c, 0x0c, 0x0c, 0xfe, 0xff, 0x1f, 0xfe, 0xff, 0x1f, 
  0x0c, 0x0c, 0x0c, 0x08, 0x0c, 0x04, 0x00, 0x0c, 0x00, 0x00, 0x0c, 0x00, 
  0x00, 0x0c, 0x00, 0x00, 0x0c, 0x00, 0x00, 0x3f, 0x00, 0x00, 0x1e, 0x00, 
  0x00, 0x0c, 0x00, 0x00, 0x00, 0x00, };
