#define assignId_width 22
#define assignId_height 22
static unsigned char assignId_bits[] = {
  0x00, 0x00, 0x00, 0x00, 0x00, 0x00, 0x00, 0x00, 0x10, 0x00, 0x00, 0x08, 
  0x00, 0x00, 0x04, 0x00, 0x00, 0x02, 0xc0, 0xff, 0x01, 0xf0, 0xff, 0x03, 
  0x3c, 0x40, 0x0f, 0x0e, 0x28, 0x1c, 0x06, 0x1c, 0x18, 0x06, 0x3e, 0x18, 
  0x02, 0x1c, 0x18, 0x06, 0x08, 0x18, 0x06, 0x00, 0x18, 0x0e, 0x00, 0x1c, 
  0x3c, 0x00, 0x0f, 0xf0, 0xff, 0x03, 0xc0, 0xff, 0x00, 0x00, 0x00, 0x00, 
  0x00, 0x00, 0x00, 0x00, 0x00, 0x00, };
