/* XPM */
static const char * camera_xpm[] = {
"14 14 10 1",
" 	c None",
".	c #FFFFFF",
"+	c #FFF200",
"@	c #000000",
"#	c #6D6D6D",
"$	c #2C2C2C",
"%	c #242424",
"&	c #0F0F0F",
"*	c #C0C0C0",
"=	c #C5C5C5",
"..............",
"......+.+.....",
".......+......",
"..@@@@@+@@@@..",
"..@###$+$##@..",
"..@%%%&%&%%@..",
"..@********@..",
"..@***@@@**@..",
"..@***@@@**@..",
"..@***=****@..",
"..@@@@@@@@@@..",
"..............",
"..............",
".............."};
