#define cut3D_width 22
#define cut3D_height 22
static unsigned char cut3D_bits[] = {
  0x00, 0x0c, 0x00, 0x08, 0x0c, 0x04, 0x10, 0x0c, 0x02, 0x20, 0x0c, 0x01,
  0x40, 0x8c, 0x00, 0x80, 0x4c, 0x00, 0x00, 0x2d, 0x00, 0x00, 0x1e, 0x00,
  0x00, 0x0c, 0x00, 0xff, 0xff, 0x3f, 0xff, 0xff, 0x3f, 0x00, 0x2d, 0x00,
  0xb8, 0x4c, 0x07, 0x44, 0x8c, 0x08, 0x82, 0x4c, 0x10, 0x82, 0x4c, 0x10,
  0x82, 0x4c, 0x10, 0x44, 0x8c, 0x08, 0x38, 0x0c, 0x07, 0x00, 0x0c, 0x00,
  0x00, 0x0c, 0x00, 0x00, 0x00, 0x00, };
