/* XPM */
static const char* deformPixmap[] = {
"22 22 2 1",
" 	c #000000000000",
".	c #FFFFFFFFFFFF",
"      ................",
"   ...................",
" .  ..................",
" ..  .................",
" ...  ................",
" ....  ...............",
"......          ......",
"...... ........ ......",
"...... ........ ......",
"...... ........ ......",
"...... ...  ... ...   ",
"...... ...  ...       ",
"...... ........ ...   ",
"...... ........ ......",
"...... ........ ......",
"......          ......",
"..... ................",
".... .................",
"... ..................",
"   ...................",
"   ...................",
"   ..................."};
