#define deform_width 22
#define deform_height 22
static unsigned char deform_bits[] = {
  0x3f, 0x00, 0x00, 0x07, 0x00, 0x00, 0x0d, 0x00, 0x00, 0x19, 0x00, 0x00, 
  0x31, 0x00, 0x00, 0x61, 0x00, 0x00, 0xc0, 0xff, 0x00, 0x40, 0x80, 0x00, 
  0x40, 0x80, 0x00, 0x40, 0x80, 0x00, 0x40, 0x8c, 0x38, 0x40, 0x8c, 0x3f, 
  0x40, 0x80, 0x38, 0x40, 0x80, 0x00, 0x40, 0x80, 0x00, 0xc0, 0xff, 0x00, 
  0x20, 0x00, 0x00, 0x10, 0x00, 0x00, 0x08, 0x00, 0x00, 0x07, 0x00, 0x00, 
  0x07, 0x00, 0x00, 0x07, 0x00, 0x00, };
