#define edit_width 22
#define edit_height 22
static unsigned char edit_bits[] = {
  0xff, 0x01, 0x00, 0x3f, 0x00, 0x00, 0x3f, 0x00, 0x00, 0x3f, 0x00, 0x00, 
  0x7f, 0x00, 0x00, 0xff, 0x00, 0x00, 0xf1, 0x01, 0x00, 0xe1, 0x03, 0x00, 
  0xc1, 0x07, 0x00, 0x80, 0x0f, 0x00, 0x00, 0x1f, 0x00, 0x00, 0x3e, 0x00, 
  0x00, 0x7c, 0x00, 0x00, 0xf8, 0x00, 0x00, 0xf0, 0x01, 0x00, 0xe0, 0x03, 
  0x00, 0xc0, 0x07, 0x00, 0x80, 0x0f, 0x00, 0x00, 0x1f, 0x00, 0x00, 0x3e, 
  0x00, 0x00, 0x3c, 0x00, 0x00, 0x38, };
