/* XPM */
static const char* measurePixmap[] = {
"22 22 2 1",
" 	c #FFFFFFFFFFFF",
".	c #000000000000",
"                      ",
"  ...                 ",
" .  ..                ",
" .... .               ",
"  .    .              ",
"   .    .             ",
"    .    .            ",
"     .    .           ",
"      .    .          ",
"       .    .         ",
"        .    .        ",
"         .    .       ",
"          .    .      ",
"           .    .     ",
"            .    .    ",
"             .    .   ",
"              .    .  ",
"               .   .  ",
".     .     .   . ... ",
".     .     .    .... ",
".  .  .  .  .  .   ...",
"......................"};
