/* XPM */
static const char *resetPixmap[] = {
"22 22 3 1",
" 	c #FFFFFFFFFFFF",
".	c #000000000000",
"X	c #FFFF00000000",
"                      ",
"       ........       ",
"     ............     ",
"    ...        ...    ",
"   ...          ...   ",
"  ...            ...  ",
"  ..      ..      ..  ",
" ..     ......     .. ",
" ..    ........    .. ",
" ..    ..XXXX..    .. ",
" ..   ...XXXX...   .. ",
" ..   ...XXXX...   .. ",
" ..    ..XXXX..    .. ",
" ..    ........    .. ",
" ..     ......     .. ",
"  ..      ..      ..  ",
"  ...            ...  ",
"   ...          ...   ",
"    ...        ...    ",
"     ............     ",
"       ........       ",
"                      "};
