#define rotate_width 22
#define rotate_height 22
static unsigned char rotate_bits[] = {
  0x00, 0x00, 0x00, 0x00, 0x00, 0x00, 0x00, 0x00, 0x00, 0x00, 0x1f, 0x00, 
  0xc0, 0x7f, 0x00, 0xe0, 0xff, 0x00, 0xf0, 0xf1, 0x01, 0x70, 0xc0, 0x01, 
  0x78, 0xc0, 0x03, 0x38, 0xc0, 0x03, 0x38, 0xf8, 0x1f, 0x38, 0xf0, 0x0f, 
  0x78, 0xe0, 0x07, 0x70, 0xc0, 0x03, 0xf0, 0x81, 0x01, 0xe0, 0x07, 0x00, 
  0xc0, 0x07, 0x00, 0x00, 0x07, 0x00, 0x00, 0x00, 0x00, 0x00, 0x00, 0x00, 
  0x00, 0x00, 0x00, 0x00, 0x00, 0x00, };
