/* XPM */
static const char *rotatePixmap[] = {
/* columns rows colors chars-per-pixel */
"22 22 2 1",
"  c yellow",
". c #808080",
/* pixels */
"......................",
"......................",
"......................",
"........     .........",
"......         .......",
".....           ......",
"....     ...     .....",
"....   .......   .....",
"...    .......    ....",
"...   ........    ....",
"...   .....          .",
"...   ......        ..",
"...    ......      ...",
"....   .......    ....",
"....     ......  .....",
".....      ...........",
"......     ...........",
"........   ...........",
"......................",
"......................",
"......................",
"......................"
};
