#define trans3D_width 22
#define trans3D_height 22
static unsigned char trans3D_bits[] = {
  0x00, 0x04, 0x00, 0x00, 0x04, 0x00, 0x00, 0x04, 0x00, 0x00, 0x1f, 0x00, 
  0xc0, 0x7f, 0x00, 0xe0, 0xff, 0x00, 0xf0, 0xf5, 0x01, 0x70, 0xc4, 0x01, 
  0x78, 0xc4, 0x03, 0x38, 0xc4, 0x03, 0xff, 0xff, 0x3f, 0x38, 0xf4, 0x0f, 
  0x78, 0xe4, 0x07, 0x70, 0xc4, 0x03, 0xf0, 0x85, 0x01, 0xe0, 0x07, 0x00, 
  0xc0, 0x07, 0x00, 0x00, 0x07, 0x00, 0x00, 0x04, 0x00, 0x00, 0x04, 0x00, 
  0x00, 0x04, 0x00, 0x00, 0x00, 0x00, };
