/* XPM */
static const char *undoPixmap[] = {
/* columns rows colors chars-per-pixel */
"14 14 2 1",
"  c None",
". c #000000000000",
/* pixels */
"              ",
"      ....    ",
"     ......   ",
"    ..    ..  ",
"   ..      .. ",
"   ..      .. ",
" ......    .. ",
"  ....     .. ",
"   ..      .. ",
"          ..  ",
"      ......  ",
"      ....    ",
"              ",
"              "
};
